<svg width="32" height="32" viewBox="0 0 32 32" fill="none" xmlns="http://www.w3.org/2000/svg">
<path d="M12.0534 28.7201C13.3334 29.1068 14.6268 29.3334 16.0001 29.3334C19.5363 29.3334 22.9277 27.9287 25.4282 25.4282C27.9287 22.9277 29.3334 19.5363 29.3334 16.0001C29.3334 14.2491 28.9885 12.5153 28.3185 10.8976C27.6484 9.27996 26.6663 7.81011 25.4282 6.57199C24.1901 5.33388 22.7202 4.35175 21.1025 3.68169C19.4849 3.01163 17.751 2.66675 16.0001 2.66675C14.2491 2.66675 12.5153 3.01163 10.8976 3.68169C9.27996 4.35175 7.81011 5.33388 6.57199 6.57199C4.07151 9.07248 2.66675 12.4639 2.66675 16.0001C2.66675 21.6668 6.22675 26.5334 11.2534 28.4534C11.1334 27.4134 11.0134 25.6934 11.2534 24.5068L12.7868 17.9201C12.7868 17.9201 12.4001 17.1468 12.4001 15.9201C12.4001 14.0801 13.5468 12.7067 14.8534 12.7067C16.0001 12.7067 16.5334 13.5468 16.5334 14.6268C16.5334 15.7734 15.7734 17.4134 15.3868 18.9868C15.1601 20.2934 16.0801 21.4401 17.4134 21.4401C19.7868 21.4401 21.6268 18.9068 21.6268 15.3334C21.6268 12.1334 19.3334 9.94675 16.0401 9.94675C12.2801 9.94675 10.0668 12.7468 10.0668 15.6934C10.0668 16.8401 10.4401 18.0001 11.0534 18.7601C11.1734 18.8401 11.1734 18.9468 11.1334 19.1468L10.7467 20.6001C10.7467 20.8268 10.6001 20.9068 10.3734 20.7468C8.66675 20.0001 7.68008 17.5734 7.68008 15.6134C7.68008 11.4001 10.6667 7.57342 16.4268 7.57342C21.0134 7.57342 24.5868 10.8667 24.5868 15.2401C24.5868 19.8268 21.7468 23.5068 17.6801 23.5068C16.3868 23.5068 15.1201 22.8134 14.6668 22.0001L13.7734 25.1601C13.4668 26.3068 12.6267 27.8401 12.0534 28.7601V28.7201Z" fill="white"/>
</svg>
